<svg width="68" height="68" viewBox="0 0 68 68" fill="none" xmlns="http://www.w3.org/2000/svg">
<g id="Frame">
<path id="Vector" d="M34.0287 31.7563L29.1557 26.7505C28.9424 26.5314 28.6892 26.3576 28.4105 26.239C28.1318 26.1204 27.8331 26.0594 27.5314 26.0594C27.2297 26.0594 26.931 26.1204 26.6523 26.239C26.3736 26.3576 26.1204 26.5314 25.9071 26.7505C25.6938 26.9696 25.5246 27.2298 25.4091 27.5161C25.2937 27.8024 25.2343 28.1092 25.2343 28.4191C25.2343 28.729 25.2937 29.0359 25.4091 29.3222C25.5246 29.6085 25.6938 29.8686 25.9071 30.0877L32.4044 36.7621C32.6177 36.9813 32.8709 37.1551 33.1496 37.2737C33.4283 37.3923 33.727 37.4534 34.0287 37.4534C34.3304 37.4534 34.6291 37.3923 34.9078 37.2737C35.1865 37.1551 35.4398 36.9813 35.653 36.7621L42.1503 30.0877C42.5811 29.6452 42.8232 29.045 42.8232 28.4191C42.8232 27.7933 42.5811 27.1931 42.1503 26.7505C41.937 26.5314 41.6838 26.3576 41.4051 26.239C41.1264 26.1204 40.8277 26.0594 40.526 26.0594C39.9168 26.0594 39.3325 26.308 38.9017 26.7505L34.0287 31.7563ZM47.7072 10.1363L61.1939 25.9262C61.7267 26.5504 62.0139 27.356 61.9995 28.186C61.9851 29.0159 61.6701 29.8106 61.116 30.4148L35.8642 57.9516C35.5605 58.2826 35.1941 58.5464 34.7875 58.7267C34.381 58.907 33.9428 59 33.5 59C33.0572 59 32.619 58.907 32.2125 58.7267C31.8059 58.5464 31.4395 58.2826 31.1358 57.9516L5.88402 30.4164C5.32993 29.8122 5.01493 29.0176 5.00052 28.1876C4.9861 27.3577 5.2733 26.552 5.80605 25.9279L19.2928 10.1363C19.5978 9.77919 19.9736 9.49308 20.3949 9.29712C20.8162 9.10116 21.2733 8.99986 21.7358 9H45.2642C45.7264 9.0001 46.1833 9.10151 46.6043 9.29746C47.0253 9.49342 47.4007 9.7794 47.7055 10.1363H47.7072Z" fill="url(#paint0_linear_29_427)"/>
</g>
<defs>
<linearGradient id="paint0_linear_29_427" x1="27.1667" y1="6.34043" x2="33.5982" y2="58.988" gradientUnits="userSpaceOnUse">
<stop stop-color="#B9CCFC"/>
<stop offset="1" stop-color="#315DFB"/>
</linearGradient>
</defs>
</svg>
