<svg width="68" height="68" viewBox="0 0 68 68" fill="none" xmlns="http://www.w3.org/2000/svg">
<g id="Frame">
<g id="Group 1377">
<path id="Vector" d="M37.0331 10.1648L42.4814 21.0532C43.0564 22.2024 44.1623 22.9952 45.4451 23.1771L57.6244 24.9227C60.8536 25.3882 62.1438 29.3014 59.8067 31.5489L50.9966 40.0371C50.075 40.9317 49.6474 42.2118 49.8686 43.4774L51.9476 55.4496C52.5006 58.6281 49.124 61.0429 46.234 59.5446L35.3374 53.8931C34.1873 53.3039 32.816 53.3039 31.6733 53.8931L20.7841 59.5373C17.8941 61.0356 14.5249 58.6208 15.0705 55.4423L17.1495 43.4701C17.3707 42.2118 16.9431 40.9244 16.0215 40.0298L7.20402 31.5561C4.8522 29.3086 6.14239 25.3882 9.37153 24.93L21.5509 23.1843C22.8337 23.0025 23.9469 22.2024 24.5146 21.0605L29.9629 10.1721C31.4153 7.2772 35.5881 7.2772 37.0331 10.1648Z" fill="url(#paint0_linear_29_395)"/>
<path id="Vector_2" d="M35.0209 26.6657L36.6074 30.0234C36.7747 30.3804 37.095 30.6235 37.4734 30.6767L41.0175 31.2084C41.9563 31.3528 42.3347 32.553 41.6507 33.2519L39.0817 35.8575C38.8124 36.131 38.6887 36.526 38.7542 36.9135L39.3582 40.5978C39.5184 41.5778 38.5359 42.3147 37.699 41.8589L34.526 40.1192C34.1912 39.9369 33.791 39.9369 33.4562 40.1192L30.2832 41.8589C29.4463 42.3222 28.4639 41.5778 28.624 40.5978L29.228 36.9135C29.2862 36.526 29.1698 36.131 28.9005 35.8575L26.3461 33.2595C25.6693 32.5682 26.0405 31.3604 26.9793 31.216L30.5234 30.6843C30.8945 30.6235 31.222 30.3804 31.3894 30.0309L32.9759 26.6733C33.3907 25.7769 34.5988 25.7769 35.0209 26.6657Z" fill="white"/>
</g>
</g>
<defs>
<linearGradient id="paint0_linear_29_395" x1="20" y1="18.5" x2="41" y2="56" gradientUnits="userSpaceOnUse">
<stop stop-color="#57FFEB"/>
<stop offset="1" stop-color="#00D7BE"/>
</linearGradient>
</defs>
</svg>
