<svg width="68" height="68" viewBox="0 0 68 68" fill="none" xmlns="http://www.w3.org/2000/svg">
<g id="Frame">
<g id="Group 1379">
<path id="Vector" d="M21.2866 26.0289C21.9698 26.4411 22.8575 26.217 23.2551 25.535C25.3592 21.9235 29.0356 15.6156 31.4856 11.412C32.5832 9.52934 35.3511 9.52934 36.4486 11.412C38.8986 15.6157 42.5751 21.9235 44.6806 25.535C45.0783 26.217 45.9659 26.4413 46.6476 26.0289C50.2596 23.8461 54.3729 21.1334 57.5117 19.0167C59.5152 17.6652 62.2283 19.1877 61.9847 21.5604C61.1756 29.4474 59.5277 43.4027 57.1869 52.7981C56.8565 54.1211 56.0767 55.2565 54.7579 55.6835C52.2169 56.5038 46.4796 57.6001 33.9679 57.6001C21.7598 57.6001 16.0016 56.5571 13.3682 55.7437C11.9178 55.2957 11.096 54.0371 10.7795 52.5783C8.48641 41.9648 6.85254 29.0654 6.01828 21.6355C5.75078 19.2527 8.47516 17.7027 10.4898 19.0611C13.6202 21.1712 17.7012 23.8614 21.2866 26.0289Z" fill="url(#paint0_linear_29_466)"/>
<path id="Vector_2" d="M42.3999 39.3997C42.3999 41.4997 36.0999 50.5998 33.9999 50.5998C31.8999 50.5998 25.5999 41.4997 25.5999 39.3997C25.5999 37.2997 31.8999 28.1997 33.9999 28.1997C36.0999 28.1997 42.3999 37.2997 42.3999 39.3997Z" fill="white"/>
</g>
</g>
<defs>
<linearGradient id="paint0_linear_29_466" x1="26.4705" y1="18.2206" x2="34" y2="57.6001" gradientUnits="userSpaceOnUse">
<stop stop-color="#FFD392"/>
<stop offset="1" stop-color="#EFB155"/>
</linearGradient>
</defs>
</svg>
