<svg width="28" height="28" viewBox="0 0 28 28" fill="none" xmlns="http://www.w3.org/2000/svg">
<g id="Frame">
<path id="Vector" d="M16.492 18.5332H15.3438C15.3438 18.5332 15.1966 18.4421 15.1966 18.1853V15.7766L13.9016 15.7931V18.4729C13.9016 18.4729 14.0264 19.1809 14.9652 19.1809H17.1397V15.9429H16.492V18.5332H16.492ZM12.6062 15.9429H11.3917C11.3917 15.9429 10.2708 15.8985 9.87796 17.1697C9.74193 18.018 9.99986 18.3416 10.0448 18.4486C10.0903 18.5545 10.4523 19.181 11.3616 19.181H13.2539V14.3084L12.6062 14.2942V15.9429H12.6062ZM12.6062 18.5332H11.6485C11.6485 18.5332 11.0587 18.5166 10.8771 17.8375C10.786 17.5341 10.8913 17.2442 10.9386 17.1076C10.983 16.9715 11.1806 16.5906 11.5887 16.5906H12.6062V18.5332ZM13.9868 1.82324C7.26212 1.82324 1.81104 7.27493 1.81104 13.9996C1.81104 20.7243 7.26215 26.176 13.9868 26.176C20.7115 26.176 26.1626 20.7243 26.1626 13.9996C26.1626 7.27493 20.7115 1.82324 13.9868 1.82324ZM14.7292 8.28528C14.8262 7.39975 15.8851 6.04096 16.734 6.23499C17.5799 6.42785 18.3519 7.55058 18.1951 8.51601C18.0425 9.48316 17.2741 10.7592 16.0785 10.603C14.8848 10.4504 14.6144 9.36902 14.7292 8.28528ZM12.2252 5.84813C13.1196 5.84813 13.8431 6.87801 13.8431 8.14925C13.8431 9.42166 13.1196 10.4516 12.2252 10.4516C11.332 10.4516 10.6074 9.42169 10.6074 8.14925C10.6074 6.87803 11.332 5.84813 12.2252 5.84813ZM7.17932 11.3004C7.17932 11.3004 7.37043 9.40569 8.68126 9.28852C9.72295 9.19925 10.4896 10.3391 10.5695 10.991C10.6186 11.414 10.8386 13.3495 9.21898 13.6979C7.60288 14.0452 7.00192 12.1753 7.17932 11.3004ZM19.5083 19.4596C18.6222 21.5477 15.384 20.4628 15.384 20.4628C15.384 20.4628 14.1897 20.0795 12.8043 20.3865C11.4183 20.6965 10.2234 20.5787 10.2234 20.5787C10.2234 20.5787 8.60254 20.6178 8.14054 18.5699C7.67914 16.5196 9.75841 15.3968 9.91405 15.2058C10.0672 15.0118 11.1468 14.2777 11.8389 13.1182C12.5345 11.9576 14.6144 11.0295 16.0785 13.3099C17.1581 14.8574 19.0079 16.2889 19.0079 16.2889C19.0079 16.2889 20.3933 17.372 19.5083 19.4596ZM19.238 14.7023C17.4639 14.7426 17.3888 13.5039 17.3888 12.6166C17.3888 11.6867 17.5799 10.3717 19.0079 10.3717C20.4335 10.3717 20.8174 11.7647 20.8174 12.2273C20.8174 12.6929 21.012 14.6633 19.238 14.7023Z" fill="white"/>
</g>
</svg>
